HIERARCHY
ROOT Hips
{
	OFFSET 0.000000 0.000000 0.000000 
	CHANNELS 6 Xposition Yposition Zposition Yrotation Zrotation Xrotation 
	JOINT Lumbar
	{
		OFFSET 0.000000 0.000000 0.000000 
		CHANNELS 3 Zrotation Xrotation Yrotation
		JOINT Neck
		{
			OFFSET 0.000000 0.445665 0.000000 
			CHANNELS 3 Zrotation Xrotation Yrotation
			End Site
			{
				OFFSET 0.000000 0.227535 0.000000 
			}
		}
		JOINT RightShoulder
		{
			OFFSET 0.019635 0.377685 0.194865 
			CHANNELS 3 Zrotation Xrotation Yrotation
			JOINT RightElbow
			{
				OFFSET 0.000000 -0.243375 0.000000 
				CHANNELS 2 Zrotation Yrotation
				JOINT RightWrist
				{
					OFFSET 0.000000 -0.264825 0.000000 
					CHANNELS 2 Zrotation Xrotation
					End Site
					{
						OFFSET 0.006600 -0.176220 0.000990 
					}
				}
			}
		}
		JOINT LeftShoulder
		{
			OFFSET 0.019635 0.377685 -0.194865 
			CHANNELS 3 Zrotation Xrotation Yrotation
			JOINT LeftElbow
			{
				OFFSET 0.000000 -0.243375 0.000000 
				CHANNELS 2 Zrotation Yrotation
				JOINT LeftWrist
				{
					OFFSET 0.000000 -0.264825 0.000000 
					CHANNELS 2 Zrotation Xrotation
					End Site
					{
						OFFSET 0.006600 -0.176220 -0.000990 
					}
				}
			}
		}
	}
	JOINT RightHip
	{
		OFFSET 0.052140 -0.069960 0.075570 
		CHANNELS 3 Zrotation Xrotation Yrotation
		JOINT RightKnee
		{
			OFFSET 0.000000 -0.402270 0.000000 
			CHANNELS 1 Zrotation
			JOINT RightAnkle
			{
				OFFSET 0.000000 -0.404085 0.000000 
				CHANNELS 3 Zrotation Xrotation Yrotation
				End Site
				{
					OFFSET 0.204105 -0.089430 0.008415 
				}
			}
		}
	}
	JOINT LeftHip
	{
		OFFSET 0.052140 -0.069960 -0.075570 
		CHANNELS 3 Zrotation Xrotation Yrotation
		JOINT LeftKnee
		{
			OFFSET 0.000000 -0.402270 0.000000 
			CHANNELS 1 Zrotation
			JOINT LeftAnkle
			{
				OFFSET 0.000000 -0.404085 0.000000 
				CHANNELS 3 Zrotation Xrotation Yrotation
				End Site
				{
					OFFSET 0.204105 -0.089430 -0.008415 
				}
			}
		}
	}
}
MOTION
Frames: 11
Frame Time: 0.02
-0 0.95578 -0 185.85725 0 -3.02439 8.56157 3.61122 -4.5451 -22.34169 2.61966 -0.16294 16.99732 -11.39648 14.36303 8.99676 84.95991 2.54117 3.04271 18.5628 5.94226 -16.67849 8.14769 -80.04949 -1.80745 -0.69324 -6.53934 7.42474 6.63846 -4.05493 2.70344 -2.94797 -4.26718 -4.65691 -0.03605 -20.43927 -5.77242 5.75342 5.50221 13.26282
0.00031 0.95582 0.00013 185.84389 0 -3.02865 8.54071 3.61278 -4.53609 -22.42062 2.62027 -0.15717 17.05783 -11.39854 14.38808 9.00071 84.86658 2.55331 3.05264 18.61292 5.95116 -16.69901 8.15343 -80.08603 -1.80882 -0.68454 -6.51066 7.48284 8.27707 -4.09713 2.55534 -3.30007 -5.90161 -4.6169 0.03213 -18.93348 -5.77576 5.89033 5.24369 11.75646
0.00062 0.95585 0.00025 185.83053 0 -3.03295 8.51989 3.61437 -4.52704 -22.49875 2.62095 -0.15123 17.11754 -11.40067 14.41307 9.00461 84.77461 2.56555 3.06266 18.66241 5.9597 -16.7195 8.15915 -80.12233 -1.81022 -0.67583 -6.48207 7.54024 9.89588 -4.13898 2.40895 -3.64811 -7.51614 -4.57717 0.09985 -17.43913 -5.779 6.02616 4.98707 10.26155
0.00092 0.95589 0.00038 185.81715 0 -3.03733 8.4991 3.61599 -4.51773 -22.57494 2.62209 -0.14472 17.17507 -11.40312 14.43839 9.00825 84.68528 2.57829 3.07348 18.71028 5.9668 -16.74057 8.16481 -80.15801 -1.81165 -0.66701 -6.45371 7.59507 11.44499 -4.17965 2.26847 -3.98249 -9.0608 -4.5381 0.16611 -15.97681 -5.78212 6.15894 4.73578 8.79894
0.00124 0.95592 0.0005 185.80402 0 -3.04109 8.47826 3.61731 -4.5098 -22.662 2.62097 -0.14143 17.2447 -11.40389 14.46234 9.01315 84.57973 2.58835 3.08047 18.76726 5.98143 -16.75919 8.17076 -80.19693 -1.81281 -0.65879 -6.42432 7.66306 13.35555 -4.22632 2.09733 -4.38821 -10.96809 -4.49549 0.23977 -14.34594 -5.78616 6.30784 4.45658 7.16666
0.00153 0.95596 0.00063 185.79028 0 -3.0463 8.45748 3.61937 -4.49898 -22.72558 2.62454 -0.13117 17.28828 -11.4082 14.4889 9.01546 84.51008 2.60408 3.09526 18.80457 5.98021 -16.78257 8.17609 -80.22899 -1.8146 -0.6493 -6.39701 7.70345 14.50498 -4.26045 1.99074 -4.6433 -12.1116 -4.46045 0.29792 -13.07244 -5.78804 6.42251 4.23644 5.89391
0.00177 0.95598 0.00075 185.77533 0 -3.05476 8.43675 3.62259 -4.47926 -22.72639 2.64255 -0.10206 17.26094 -11.423 14.52635 9.00996 84.52837 2.63665 3.13518 18.78905 5.93276 -16.82382 8.17972 -80.24201 -1.81776 -0.63616 -6.37594 7.66355 13.46132 -4.25797 2.06996 -4.46847 -11.05578 -4.44572 0.31153 -12.79338 -5.78552 6.44218 4.18136 5.62324
0.00199 0.956 0.00086 185.75966 0 -3.06482 8.41603 3.62671 -4.45677 -22.70271 2.66513 -0.06581 17.20664 -11.44137 14.56603 9.00199 84.58477 2.67482 3.1824 18.753 5.86969 -16.86925 8.18272 -80.24817 -1.82163 -0.62175 -6.35685 7.59649 11.6643 -4.24318 2.21307 -4.14389 -9.24372 -4.43878 0.30982 -12.87353 -5.78042 6.42734 4.18545 5.71356
0.00222 0.95603 0.00098 185.74399 0 -3.07465 8.39544 3.63102 -4.43613 -22.68942 2.68457 -0.03258 17.16449 -11.45749 14.60206 8.99556 84.63132 2.70966 3.22391 18.72586 5.81538 -16.9095 8.18596 -80.25752 -1.82545 -0.60804 -6.33651 7.5445 10.27057 -4.23534 2.3221 -3.89675 -7.83557 -4.4286 0.31619 -12.784 -5.7756 6.42869 4.16114 5.63234
0.00245 0.95605 0.00109 185.7297 0 -3.08243 8.37452 3.63285 -4.41302 -22.68095 2.70817 -0.00039 17.1245 -11.47573 14.64828 8.98732 84.64718 2.74764 3.27528 18.70213 5.75421 -16.96278 8.18933 -80.26645 -1.82814 -0.59387 -6.31768 7.48105 8.62207 -4.22182 2.45231 -3.61024 -6.17554 -4.41695 0.31774 -12.72127 -5.77497 6.42814 4.14328 5.58263
0.00268 0.95608 0.0012 185.7124 0 -3.09482 8.354 3.63998 -4.39435 -22.65448 2.7246 0.03577 17.07143 -11.49104 14.67497 8.98232 84.73497 2.78062 3.30811 18.66436 5.70344 -16.99094 8.19236 -80.27476 -1.83331 -0.58029 -6.29616 7.43494 7.3224 -4.21716 2.55373 -3.36986 -4.85764 -4.41047 0.32581 -12.68858 -5.76448 6.42307 4.12595 5.55324
